<?xml version="1.0" standalone="no"?>
<!DOCTYPE svg PUBLIC "-//W3C//DTD SVG 20010904//EN"
 "http://www.w3.org/TR/2001/REC-SVG-20010904/DTD/svg10.dtd">
<svg version="1.0" xmlns="http://www.w3.org/2000/svg"
 width="709.000000pt" height="709.000000pt" viewBox="0 0 709.000000 709.000000"
 preserveAspectRatio="xMidYMid meet">
<metadata>
Created by potrace 1.14, written by Peter Selinger 2001-2017
</metadata>
<g transform="translate(0.000000,709.000000) scale(0.100000,-0.100000)"
fill="#000000" stroke="none">
<path d="M4418 5889 c-7 -4 -16 -5 -20 -3 -4 3 -8 0 -8 -5 0 -6 -6 -11 -12
-11 -20 0 -108 -64 -108 -77 0 -7 -4 -13 -8 -13 -10 0 -50 -83 -58 -120 -7
-31 -6 -78 1 -121 6 -35 59 -137 80 -154 7 -5 31 -36 55 -67 23 -32 47 -58 53
-58 6 0 8 -3 4 -6 -6 -6 109 -156 124 -162 5 -2 9 -8 9 -13 0 -7 78 -110 197
-259 7 -8 64 -82 128 -165 64 -82 124 -159 133 -170 10 -11 38 -47 62 -80 58
-77 57 -76 81 -105 12 -14 33 -41 48 -60 14 -19 31 -40 36 -46 32 -38 97 -124
97 -131 1 -4 6 -12 13 -18 7 -5 36 -39 64 -75 60 -74 61 -75 121 -155 25 -33
47 -62 50 -65 3 -3 18 -23 35 -45 16 -22 33 -43 38 -46 6 -4 12 -29 15 -57 6
-67 -21 -113 -100 -172 -33 -25 -86 -65 -118 -90 -31 -25 -72 -56 -90 -70 -18
-14 -43 -33 -54 -43 -12 -9 -59 -47 -106 -83 -47 -36 -94 -73 -105 -82 -11
-10 -38 -30 -60 -46 -22 -17 -42 -33 -45 -36 -3 -3 -21 -17 -40 -30 -19 -14
-46 -35 -60 -48 -14 -13 -37 -31 -52 -40 -16 -9 -28 -20 -28 -24 0 -4 -7 -8
-15 -8 -8 0 -15 -4 -15 -9 0 -5 -20 -22 -45 -38 -25 -15 -45 -31 -45 -34 0 -3
-21 -21 -47 -39 -27 -19 -50 -37 -53 -40 -3 -4 -36 -30 -75 -59 -38 -30 -71
-57 -73 -62 -2 -5 -8 -9 -14 -9 -6 0 -27 -15 -48 -32 -20 -18 -81 -67 -135
-108 -55 -41 -110 -85 -123 -97 -14 -13 -28 -23 -32 -23 -3 0 -15 -8 -26 -18
-10 -9 -41 -35 -69 -57 -27 -22 -55 -44 -60 -50 -14 -13 -45 -63 -46 -72 -1
-5 -6 -16 -11 -27 -29 -54 -25 -152 9 -235 23 -53 105 -127 165 -147 105 -35
227 -10 312 63 18 16 47 39 66 53 18 14 38 30 44 35 6 6 29 24 51 41 143 110
180 138 194 150 9 7 63 50 121 94 58 45 115 90 128 101 12 10 25 19 28 19 4 0
14 8 23 18 9 9 43 37 76 62 33 25 66 50 75 57 8 7 60 47 115 90 55 43 106 82
112 88 7 5 23 18 35 27 13 10 72 56 131 103 60 47 112 85 117 85 4 0 10 3 12
8 5 12 158 134 158 126 0 -4 6 -1 13 8 17 22 207 168 219 168 5 0 6 5 3 10 -3
6 0 10 9 10 8 0 16 4 18 8 2 4 21 21 43 37 57 43 76 58 97 78 10 9 23 17 28
17 6 0 10 5 10 10 0 6 7 10 15 10 8 0 15 4 15 8 0 5 18 21 41 38 74 54 107 89
119 127 12 38 6 112 -10 122 -5 3 -6 13 -3 21 3 9 2 19 -4 23 -5 3 -22 24 -38
46 -17 22 -32 42 -35 45 -3 3 -21 25 -40 50 -19 25 -39 50 -45 57 -12 15 -20
25 -65 83 -19 25 -38 47 -42 48 -5 2 -8 8 -8 13 0 6 -11 22 -25 37 -14 15 -38
46 -53 69 -15 24 -33 43 -40 43 -7 0 -11 4 -8 9 4 5 3 11 -1 13 -5 1 -28 30
-53 63 -25 33 -47 62 -51 65 -3 3 -18 23 -35 45 -16 22 -33 45 -39 52 -13 16
-23 29 -65 83 -19 25 -39 50 -45 56 -5 7 -19 24 -30 40 -31 43 -69 89 -77 92
-5 2 -8 10 -8 17 0 8 -6 18 -12 22 -7 4 -42 46 -78 93 -35 47 -67 87 -70 90
-3 3 -25 32 -50 65 -25 33 -55 71 -67 85 -13 14 -23 28 -23 32 0 4 -8 15 -18
25 -10 10 -50 59 -87 108 -38 50 -72 92 -75 95 -3 3 -29 37 -58 75 -28 39 -63
84 -77 100 -13 17 -47 59 -75 95 -191 248 -244 312 -274 335 -17 13 -50 32
-72 41 -40 17 -165 26 -186 13z"/>
<path d="M2648 5849 c-16 -4 -28 -5 -28 -3 0 2 -22 -9 -50 -24 -43 -24 -124
-94 -301 -262 -26 -25 -89 -83 -140 -130 -51 -47 -113 -105 -139 -130 -26 -25
-93 -88 -150 -140 -56 -52 -121 -113 -145 -135 -41 -39 -232 -217 -306 -286
-31 -29 -145 -135 -309 -289 -21 -19 -74 -69 -119 -110 -45 -41 -115 -106
-155 -145 -41 -38 -122 -115 -182 -170 -161 -149 -175 -163 -172 -172 1 -4 -6
-23 -16 -41 -24 -45 -23 -103 2 -144 11 -18 49 -63 84 -99 35 -36 108 -115
163 -174 87 -94 147 -159 280 -300 77 -83 245 -263 269 -290 15 -16 55 -59 89
-95 34 -36 114 -121 177 -189 63 -68 135 -145 160 -171 25 -26 90 -96 145
-156 55 -59 116 -124 135 -144 19 -20 76 -81 127 -136 118 -127 222 -235 249
-257 36 -30 118 -54 175 -52 59 2 139 23 139 37 0 4 6 8 13 8 16 1 57 37 85
77 34 48 53 111 53 179 1 80 -36 157 -117 240 -32 34 -102 108 -154 164 -52
57 -111 120 -130 140 -19 20 -75 81 -125 134 -49 53 -112 121 -140 150 -27 28
-95 100 -150 160 -55 59 -122 131 -148 159 -27 29 -92 99 -145 156 -54 58
-115 124 -137 146 -22 23 -85 91 -140 150 -55 60 -106 114 -113 121 -27 28
-43 86 -36 128 7 42 -3 31 265 287 33 30 59 54 59 53 0 -1 29 26 65 61 36 35
65 63 65 61 0 -2 24 20 53 50 28 30 57 54 64 54 6 0 15 9 18 20 3 11 9 20 13
20 4 0 41 32 82 71 41 39 110 103 153 142 43 40 102 95 131 122 29 28 96 91
150 140 53 50 128 119 166 155 38 36 108 101 156 145 216 198 270 258 292 316
28 76 25 167 -7 233 -41 82 -118 147 -191 160 -14 3 -25 5 -25 6 0 6 -85 6
-107 -1z"/>
<path d="M2611 4511 c-35 -34 -64 -61 -66 -61 -1 0 -29 -26 -62 -57 -58 -57
-258 -244 -318 -297 -27 -24 -239 -223 -287 -268 -24 -24 -23 -36 10 -67 15
-15 70 -73 122 -130 52 -57 115 -124 140 -150 25 -26 95 -101 155 -166 61 -65
131 -141 158 -168 26 -27 47 -54 47 -59 0 -5 5 -6 10 -3 6 3 10 2 10 -3 0 -5
21 -31 46 -57 l45 -48 37 35 c20 19 68 64 106 99 38 35 91 85 118 112 28 26
51 47 52 47 1 0 29 26 62 58 34 31 112 104 174 162 62 58 130 121 150 140 20
19 56 53 80 75 l43 39 76 -80 c42 -45 110 -117 151 -161 41 -45 120 -129 175
-188 55 -59 118 -127 140 -151 168 -181 220 -234 226 -234 4 0 25 17 46 38 84
80 236 222 238 222 1 0 29 26 62 58 34 31 111 104 173 162 62 58 152 142 199
187 47 46 89 83 94 83 18 0 3 23 -46 75 -30 30 -53 55 -52 55 2 0 -131 142
-226 241 -41 43 -74 79 -73 79 1 0 -19 22 -44 49 -26 27 -87 93 -137 146 -49
53 -104 111 -121 128 -17 18 -35 40 -41 51 -9 17 -15 14 -69 -34 -32 -29 -78
-72 -101 -96 -24 -24 -43 -42 -43 -39 0 3 -17 -11 -39 -32 -21 -21 -96 -92
-167 -158 -152 -143 -280 -262 -310 -291 -12 -11 -34 -30 -49 -42 -15 -12 -24
-22 -20 -22 4 0 -4 -9 -18 -21 l-27 -20 -29 33 c-16 18 -51 56 -77 85 -63 66
-229 243 -274 292 -19 21 -82 88 -140 151 -58 62 -128 137 -156 166 -29 29
-49 55 -46 58 3 3 -1 6 -8 6 -7 0 -18 7 -24 16 -11 14 -20 8 -75 -45z"/>
</g>
</svg>
